<svg width="25" height="24" viewBox="0 0 25 24" fill="none" xmlns="http://www.w3.org/2000/svg">
<path d="M21.8901 9.97982L13.8256 1.91575C13.2392 1.32956 12.4441 1.00018 11.6149 1H5.10923C4.1138 1 3.15914 1.39541 2.45527 2.09925C1.75139 2.80308 1.35596 3.75769 1.35596 4.75306V11.2584C1.35547 12.0877 1.68444 12.8833 2.27051 13.4702L10.3338 21.5342C10.7985 21.9989 11.3502 22.3676 11.9574 22.6191C12.5645 22.8706 13.2153 23 13.8725 23C14.5297 23 15.1805 22.8706 15.7877 22.6191C16.3948 22.3676 16.9465 21.9989 17.4112 21.5342L19.6507 19.2949L21.8901 17.0556C22.3548 16.5909 22.7235 16.0393 22.975 15.4321C23.2265 14.825 23.356 14.1743 23.356 13.5171C23.356 12.8599 23.2265 12.2092 22.975 11.602C22.7235 10.9949 22.3548 10.4445 21.8901 9.97982Z" stroke="white" stroke-width="1.5" stroke-linecap="round" stroke-linejoin="round"/>
</svg>
