<svg width="24" height="24" viewBox="0 0 24 24" fill="none" xmlns="http://www.w3.org/2000/svg">
<path d="M10.0072 22.9999C11.1884 22.9999 12.146 22.0426 12.146 20.8615C12.146 19.6805 11.1884 18.7231 10.0072 18.7231C8.82598 18.7231 7.86841 19.6805 7.86841 20.8615C7.86841 22.0426 8.82598 22.9999 10.0072 22.9999Z" stroke="white" stroke-width="1.5" stroke-linecap="round" stroke-linejoin="round"/>
<path d="M19.3258 22.9999C20.507 22.9999 21.4646 22.0426 21.4646 20.8615C21.4646 19.6805 20.507 18.7231 19.3258 18.7231C18.1446 18.7231 17.187 19.6805 17.187 20.8615C17.187 22.0426 18.1446 22.9999 19.3258 22.9999Z" stroke="white" stroke-width="1.5" stroke-linecap="round" stroke-linejoin="round"/>
<path d="M5.04945 3.89771L7.57677 11.8982C7.9653 13.1277 8.15893 13.7424 8.53237 14.1975C8.85929 14.5998 9.28554 14.9103 9.76711 15.1026C10.3141 15.3201 10.9578 15.3201 12.2479 15.3201H17.0951C18.3852 15.3201 19.0289 15.3201 19.5746 15.1026C20.0575 14.9103 20.4825 14.5998 20.8106 14.1975C21.1828 13.7424 21.3764 13.1277 21.7662 11.8982L22.2805 10.2689L22.5823 9.30594L22.9985 7.98594C23.147 7.51514 23.1825 7.01599 23.1021 6.52891C23.0217 6.04184 22.8277 5.58054 22.5358 5.18241C22.2439 4.78427 21.8622 4.46048 21.4218 4.23729C20.9814 4.01409 20.4946 3.89776 20.0009 3.89771H5.04945ZM5.04945 3.89771L5.03562 3.8512C4.98252 3.67339 4.92381 3.4973 4.85958 3.3232C4.60503 2.67897 4.17335 2.11989 3.61444 1.71057C3.05552 1.30125 2.39218 1.05839 1.70106 1.01006C1.57155 1 1.42947 1 1.14404 1" stroke="white" stroke-width="1.5" stroke-linecap="round" stroke-linejoin="round"/>
</svg>
