<svg width="23" height="23" viewBox="0 0 23 23" fill="none" xmlns="http://www.w3.org/2000/svg">
<path d="M6.3772 13.9798L4.31453 6.60096L5.06675 6.39533L7.18215 13.9628C6.91622 13.9473 6.64709 13.9526 6.3772 13.9798ZM8.51308 15.2921C9.11857 15.5564 9.65195 15.9663 10.0533 16.4894L9.95855 16.5137L9.47121 16.6389L9.59947 17.1254L9.63212 17.2493C9.30495 16.6923 8.80444 16.2579 8.21599 15.9952C8.25398 15.9458 8.28867 15.8939 8.31978 15.8396C8.41032 15.6817 8.46865 15.5075 8.49121 15.3268C8.49245 15.3169 8.49357 15.307 8.49459 15.2971L8.51308 15.2921ZM7.40729 22.4664C5.65083 22.6941 3.94045 21.7547 3.25876 20.1805L4.01869 19.9728C4.57442 21.1467 5.86416 21.8604 7.21223 21.7245L7.40729 22.4664ZM5.59283 15.9792C4.36333 16.5072 3.62345 17.7339 3.75056 19.0094L2.98887 19.2176C2.75479 17.5216 3.75068 15.881 5.39746 15.2366L5.59283 15.9792ZM8.37605 22.2183L8.18053 21.4747C9.3007 20.9937 10.0145 19.9327 10.0365 18.7832L10.0483 18.828L10.1749 19.3084L10.6562 19.1848L10.7934 19.1495C10.6347 20.496 9.72332 21.6909 8.37605 22.2183ZM20.6984 15.5723L11.7553 17.8699L11.6462 17.4796L11.6461 17.4794C11.6461 17.4792 11.646 17.4789 11.6459 17.4787L11.5506 17.1372L20.5046 14.8371L20.6984 15.5723Z" fill="black" stroke="#5BB35B"/>
<path d="M20.0956 4.79753C19.5198 2.73713 19.2312 1.70693 18.3859 1.23876C17.5381 0.76942 16.4636 1.04633 14.3146 1.59898L12.035 2.18331C9.88594 2.73478 8.81143 3.01169 8.32344 3.82365C7.83427 4.63444 8.1216 5.66464 8.69744 7.72387L9.30891 9.90982C9.88475 11.9691 10.1721 12.9993 11.0186 13.4674C11.8652 13.9368 12.9397 13.6598 15.0887 13.1084L17.3684 12.5217C19.5174 11.9702 20.5919 11.6945 21.0811 10.8837C21.3494 10.4378 21.3838 9.92625 21.2639 9.21402" stroke="#5BB35B" stroke-width="1.5" stroke-linecap="round"/>
</svg>
