<svg width="20" height="24" viewBox="0 0 20 24" fill="none" xmlns="http://www.w3.org/2000/svg">
<path d="M19 23.0001V19.7001C19 16.5893 19 15.0328 18.0111 14.067C17.0234 13.1001 15.4315 13.1001 12.25 13.1001L10 15.3001L7.75 13.1001C4.5685 13.1001 2.97663 13.1001 1.98888 14.067C1 15.0328 1 16.5893 1 19.7001V23.0001M14.5 13.1001V19.1501" stroke="#5BB35B" stroke-width="1.5" stroke-linecap="round" stroke-linejoin="round"/>
<path d="M6.0625 13.1V17.5M6.0625 17.5C6.65924 17.5 7.23153 17.7318 7.65349 18.1444C8.07545 18.5569 8.3125 19.1165 8.3125 19.7V20.8M6.0625 17.5C5.46576 17.5 4.89347 17.7318 4.47151 18.1444C4.04955 18.5569 3.8125 19.1165 3.8125 19.7V20.8M13.9375 5.95V4.85C13.9375 4.34441 13.8357 3.84377 13.6378 3.37667C13.4399 2.90956 13.1499 2.48514 12.7842 2.12764C12.4186 1.77013 11.9845 1.48654 11.5068 1.29306C11.0291 1.09958 10.5171 1 10 1C9.48292 1 8.9709 1.09958 8.49318 1.29306C8.01546 1.48654 7.5814 1.77013 7.21577 2.12764C6.85014 2.48514 6.5601 2.90956 6.36222 3.37667C6.16435 3.84377 6.0625 4.34441 6.0625 4.85V5.95C6.0625 6.45559 6.16435 6.95623 6.36222 7.42333C6.5601 7.89043 6.85014 8.31485 7.21577 8.67236C7.5814 9.02987 8.01546 9.31346 8.49318 9.50694C8.9709 9.70042 9.48292 9.8 10 9.8C10.5171 9.8 11.0291 9.70042 11.5068 9.50694C11.9845 9.31346 12.4186 9.02987 12.7842 8.67236C13.1499 8.31485 13.4399 7.89043 13.6378 7.42333C13.8357 6.95623 13.9375 6.45559 13.9375 5.95ZM15.3438 19.975C15.3438 20.1938 15.2549 20.4036 15.0966 20.5584C14.9384 20.7131 14.7238 20.8 14.5 20.8C14.2762 20.8 14.0616 20.7131 13.9034 20.5584C13.7451 20.4036 13.6562 20.1938 13.6562 19.975C13.6562 19.7562 13.7451 19.5464 13.9034 19.3916C14.0616 19.2369 14.2762 19.15 14.5 19.15C14.7238 19.15 14.9384 19.2369 15.0966 19.3916C15.2549 19.5464 15.3438 19.7562 15.3438 19.975Z" stroke="#5BB35B" stroke-width="1.5" stroke-linecap="round" stroke-linejoin="round"/>
</svg>
