<svg width="22" height="18" viewBox="0 0 22 18" fill="none" xmlns="http://www.w3.org/2000/svg">
<path d="M13.0052 1H8.99523C5.21523 1 3.32523 1 2.15023 2.172C1.34023 2.978 1.08923 4.123 1.01023 5.989C0.995231 6.359 0.987231 6.545 1.05623 6.668C1.12623 6.791 1.40123 6.946 1.95323 7.254C2.26416 7.42734 2.52317 7.68058 2.70347 7.98753C2.88378 8.29448 2.97884 8.64401 2.97884 9C2.97884 9.35599 2.88378 9.70552 2.70347 10.0125C2.52317 10.3194 2.26416 10.5727 1.95323 10.746C1.40123 11.055 1.12523 11.209 1.05623 11.332C0.987231 11.455 0.995231 11.64 1.01123 12.01C1.08923 13.877 1.34123 15.022 2.15023 15.828C3.32423 17 5.21423 17 8.99523 17H13.0052C16.7852 17 18.6752 17 19.8502 15.828C20.6602 15.022 20.9112 13.877 20.9902 12.011C21.0052 11.641 21.0132 11.455 20.9442 11.332C20.8742 11.209 20.5992 11.055 20.0472 10.746C19.7363 10.5727 19.4773 10.3194 19.297 10.0125C19.1167 9.70552 19.0216 9.35599 19.0216 9C19.0216 8.64401 19.1167 8.29448 19.297 7.98753C19.4773 7.68058 19.7363 7.42734 20.0472 7.254C20.5992 6.946 20.8752 6.791 20.9442 6.668C21.0132 6.545 21.0052 6.36 20.9892 5.989C20.9112 4.123 20.6592 2.979 19.8502 2.172C18.6762 1 16.7862 1 13.0052 1Z" stroke="#5BB35B" stroke-width="1.5"/>
<path d="M8.00024 12L14.0002 6" stroke="#5BB35B" stroke-width="1.5" stroke-linecap="round"/>
<path d="M14.5002 11.5C14.5002 11.7652 14.3949 12.0196 14.2074 12.2071C14.0198 12.3946 13.7655 12.5 13.5002 12.5C13.235 12.5 12.9807 12.3946 12.7931 12.2071C12.6056 12.0196 12.5002 11.7652 12.5002 11.5C12.5002 11.2348 12.6056 10.9804 12.7931 10.7929C12.9807 10.6054 13.235 10.5 13.5002 10.5C13.7655 10.5 14.0198 10.6054 14.2074 10.7929C14.3949 10.9804 14.5002 11.2348 14.5002 11.5ZM9.50024 6.5C9.50024 6.76522 9.39489 7.01957 9.20735 7.20711C9.01981 7.39464 8.76546 7.5 8.50024 7.5C8.23503 7.5 7.98067 7.39464 7.79314 7.20711C7.6056 7.01957 7.50024 6.76522 7.50024 6.5C7.50024 6.23478 7.6056 5.98043 7.79314 5.79289C7.98067 5.60536 8.23503 5.5 8.50024 5.5C8.76546 5.5 9.01981 5.60536 9.20735 5.79289C9.39489 5.98043 9.50024 6.23478 9.50024 6.5Z" fill="#5BB35B"/>
</svg>
