<svg width="23" height="23" viewBox="0 0 23 23" fill="none" xmlns="http://www.w3.org/2000/svg">
<path fill-rule="evenodd" clip-rule="evenodd" d="M11.4997 0.302246C10.8695 0.302246 10.2893 0.458496 9.65488 0.720996C9.04134 0.975163 8.32884 1.34912 7.44238 1.81475L5.28822 2.94495C4.19968 3.51579 3.32988 3.97308 2.65592 4.42204C1.96009 4.88766 1.42259 5.37725 1.03197 6.04079C0.642383 6.70225 0.467383 7.41891 0.383008 8.27204C0.301758 9.10016 0.301758 10.1179 0.301758 11.3991V11.6012C0.301758 12.8825 0.301758 13.9002 0.383008 14.7283C0.467383 15.5825 0.643424 16.2981 1.03197 16.9595C1.42259 17.6231 1.95905 18.1127 2.65697 18.5783C3.32884 19.0272 4.19968 19.4845 5.28822 20.0554L7.44238 21.1856C8.32884 21.6512 9.04134 22.0252 9.65488 22.2793C10.2903 22.5418 10.8695 22.6981 11.4997 22.6981C12.1299 22.6981 12.7101 22.5418 13.3445 22.2793C13.958 22.0252 14.6705 21.6512 15.557 21.1856L17.7111 20.0564C18.7997 19.4845 19.6695 19.0272 20.3424 18.5783C21.0403 18.1127 21.5768 17.6231 21.9674 16.9595C22.357 16.2981 22.532 15.5814 22.6163 14.7283C22.6976 13.9002 22.6976 12.8825 22.6976 11.6022V11.3981C22.6976 10.1179 22.6976 9.10016 22.6163 8.27204C22.532 7.41787 22.3559 6.70225 21.9674 6.04079C21.5768 5.37725 21.0403 4.88766 20.3424 4.42204C19.6705 3.97308 18.7997 3.51579 17.7111 2.94495L15.557 1.81475C14.6705 1.34912 13.958 0.975163 13.3445 0.720996C12.7091 0.458496 12.1299 0.302246 11.4997 0.302246ZM8.13509 3.21475C9.06218 2.72829 9.71218 2.3887 10.2518 2.16579C10.7768 1.94808 11.1466 1.86475 11.4997 1.86475C11.8538 1.86475 12.2226 1.94808 12.7476 2.16579C13.2872 2.3887 13.9361 2.72829 14.8632 3.21475L16.9466 4.3085C18.082 4.90329 18.8788 5.32308 19.4757 5.721C19.7695 5.91787 19.9997 6.10016 20.1872 6.2835L16.7174 8.01787L7.86322 3.35745L8.13509 3.21475ZM6.23405 4.21266L6.0528 4.3085C4.91738 4.90329 4.12051 5.32308 3.52467 5.721C3.27063 5.88608 3.03245 6.07439 2.81322 6.2835L11.4997 10.6272L14.9966 8.87725L6.44863 4.37933C6.36847 4.33589 6.29598 4.27958 6.23405 4.21266ZM2.06009 7.65329C2.00801 7.8762 1.96738 8.12933 1.93822 8.42412C1.8653 9.16787 1.86426 10.1085 1.86426 11.4387V11.5606C1.86426 12.8918 1.86426 13.8325 1.93822 14.5752C2.01009 15.3012 2.14655 15.771 2.37884 16.1668C2.61009 16.5595 2.94447 16.8918 3.52467 17.2793C4.12051 17.6772 4.91738 18.097 6.0528 18.6918L8.13613 19.7856C9.06322 20.272 9.71218 20.6116 10.2518 20.8345C10.4212 20.9047 10.5768 20.962 10.7184 21.0064V11.9825L2.06009 7.65329ZM12.2809 21.0054C12.4226 20.9616 12.5781 20.9047 12.7476 20.8345C13.2872 20.6116 13.9361 20.272 14.8632 19.7856L16.9466 18.6918C18.082 18.096 18.8788 17.6772 19.4757 17.2793C20.0549 16.8918 20.3893 16.5595 20.6216 16.1668C20.8538 15.771 20.9893 15.3022 21.0611 14.5752C21.1341 13.8325 21.1351 12.8918 21.1351 11.5616V11.4397C21.1351 10.1085 21.1351 9.16787 21.0611 8.42516C21.0366 8.16593 20.9959 7.90848 20.9393 7.65433L17.4893 9.37829V12.5418C17.4893 12.749 17.4069 12.9477 17.2604 13.0943C17.1139 13.2408 16.9152 13.3231 16.708 13.3231C16.5008 13.3231 16.3021 13.2408 16.1556 13.0943C16.0091 12.9477 15.9268 12.749 15.9268 12.5418V10.1606L12.2809 11.9835V21.0054Z" fill="#939393"/>
</svg>
