<svg width="22" height="22" viewBox="0 0 22 22" fill="none" xmlns="http://www.w3.org/2000/svg">
<path d="M20.1477 10.3848H16.8V1.84564C16.8 1.35614 16.6055 0.886699 16.2593 0.540575C15.9131 0.194451 15.4435 0 14.9538 0H7.04C6.55037 0 6.08079 0.194451 5.73457 0.540575C5.38835 0.886699 5.19385 1.35614 5.19385 1.84564V10.3848H1.84615C1.35652 10.3848 0.886947 10.5792 0.540726 10.9254C0.194505 11.2715 0 11.7409 0 12.2304V20.1544C0 20.6439 0.194505 21.1133 0.540726 21.4594C0.886947 21.8055 1.35652 22 1.84615 22H9.76615C10.2223 22.0011 10.662 21.8297 10.9969 21.5201C11.3331 21.8277 11.772 21.9988 12.2277 22H20.1538C20.6435 22 21.1131 21.8055 21.4593 21.4594C21.8055 21.1133 22 20.6439 22 20.1544V12.2304C22 11.9875 21.952 11.747 21.8589 11.5227C21.7657 11.2984 21.6292 11.0946 21.4571 10.9232C21.285 10.7517 21.0808 10.6159 20.8561 10.5235C20.6314 10.4311 20.3906 10.384 20.1477 10.3848ZM10.3815 20.1544C10.3815 20.3175 10.3167 20.474 10.2013 20.5894C10.0859 20.7048 9.92936 20.7696 9.76615 20.7696H1.84615C1.68294 20.7696 1.52642 20.7048 1.41101 20.5894C1.2956 20.474 1.23077 20.3175 1.23077 20.1544V12.2304C1.23077 12.0673 1.2956 11.9108 1.41101 11.7954C1.52642 11.68 1.68294 11.6152 1.84615 11.6152H4.27077V14.0761C4.27077 14.2392 4.3356 14.3957 4.45101 14.5111C4.56642 14.6265 4.72294 14.6913 4.88615 14.6913H6.73231C6.89473 14.6887 7.04978 14.6231 7.16464 14.5083C7.2795 14.3934 7.34515 14.2384 7.34769 14.0761V11.6152H10.3815V20.1544ZM6.42462 10.3848V1.84564C6.42462 1.68247 6.48945 1.52599 6.60486 1.41062C6.72026 1.29524 6.87679 1.23042 7.04 1.23042H9.45231V3.69127C9.45231 3.85444 9.51714 4.01092 9.63255 4.1263C9.74796 4.24167 9.90448 4.30649 10.0677 4.30649H11.9138C12.0771 4.30649 12.2336 4.24167 12.349 4.1263C12.4644 4.01092 12.5292 3.85444 12.5292 3.69127V1.23042H14.9538C15.1171 1.23042 15.2736 1.29524 15.389 1.41062C15.5044 1.52599 15.5692 1.68247 15.5692 1.84564V10.3848H6.42462ZM20.7631 20.1544C20.7605 20.3167 20.6949 20.4717 20.58 20.5866C20.4652 20.7014 20.3101 20.767 20.1477 20.7696H12.2277C12.0653 20.767 11.9102 20.7014 11.7954 20.5866C11.6805 20.4717 11.6148 20.3167 11.6123 20.1544V11.6152H14.6523V14.0761C14.6523 14.2392 14.7171 14.3957 14.8326 14.5111C14.948 14.6265 15.1045 14.6913 15.2677 14.6913H17.1138C17.2771 14.6913 17.4336 14.6265 17.549 14.5111C17.6644 14.3957 17.7292 14.2392 17.7292 14.0761V11.6152H20.1538C20.3171 11.6152 20.4736 11.68 20.589 11.7954C20.7044 11.9108 20.7692 12.0673 20.7692 12.2304L20.7631 20.1544Z" fill="#5BB35B"/>
</svg>
